<svg width="298" height="244" viewBox="0 0 298 244" fill="none" xmlns="http://www.w3.org/2000/svg">
<path d="M10.3792 112.081V114.601" stroke="#D2D8DF" strokeWidth="2.921" strokeLinecap="round"/>
<path d="M4.71704 113.446L6.777 115.567" stroke="#D2D8DF" strokeWidth="2.921" strokeLinecap="round"/>
<path d="M2.30762 119.091H5.22037" stroke="#D2D8DF" strokeWidth="2.921" strokeLinecap="round"/>
<path d="M4.48071 124.836L6.54067 122.716" stroke="#D2D8DF" strokeWidth="2.921" strokeLinecap="round"/>
<path d="M10.3792 125.526V123.005" stroke="#D2D8DF" strokeWidth="2.921" strokeLinecap="round"/>
<path d="M14.5808 123.845L12.9001 122.164" stroke="#D2D8DF" strokeWidth="2.921" strokeLinecap="round"/>
<path d="M17.9421 119.643H15.4211" stroke="#D2D8DF" strokeWidth="2.921" strokeLinecap="round"/>
<path d="M16.2614 113.761L14.5808 115.442" stroke="#D2D8DF" strokeWidth="2.921" strokeLinecap="round"/>
<path d="M145.669 2V3.68062" stroke="#D2D8DF" strokeWidth="2.921" strokeLinecap="round"/>
<path d="M140.627 7.04175H142.308" stroke="#D2D8DF" strokeWidth="2.921" strokeLinecap="round"/>
<path d="M145.669 12.0837V10.4031" stroke="#D2D8DF" strokeWidth="2.921" strokeLinecap="round"/>
<path d="M149.871 7.04175H148.19" stroke="#D2D8DF" strokeWidth="2.921" strokeLinecap="round"/>
<path d="M48.1931 72.5859V75.1069" stroke="#D2D8DF" strokeWidth="2.921" strokeLinecap="round"/>
<path d="M40.6304 80.1489H43.1513" stroke="#D2D8DF" strokeWidth="2.921" strokeLinecap="round"/>
<path d="M48.1931 86.8713V84.3503" stroke="#D2D8DF" strokeWidth="2.921" strokeLinecap="round"/>
<path d="M54.9157 80.1489H52.3948" stroke="#D2D8DF" strokeWidth="2.921" strokeLinecap="round"/>
<path d="M229.073 164.213C231.081 164.213 232.71 165.842 232.71 167.851C232.71 169.86 231.081 171.488 229.073 171.488C227.065 171.488 225.436 169.86 225.436 167.851" stroke="#D2D8DF" stroke-width="2.921" stroke-linecap="round"/>
<path fillRule="evenodd" clipRule="evenodd" d="M245.717 131.209C247.876 130.535 251.186 127.894 251.953 125.053C252.647 127.565 255.56 130.535 258.188 130.76C255.23 131.808 252.401 134.92 251.953 137.364C251.647 134.872 247.735 131.572 245.717 131.209Z" fill="#EBECEE"/>
<path fillRule="evenodd" clipRule="evenodd" d="M24.0522 163.092C25.1323 162.755 26.7867 161.435 27.1698 160.015C27.5172 161.27 28.9732 162.755 30.2873 162.868C28.8084 163.391 27.3945 164.948 27.1698 166.17C27.0171 164.924 25.061 163.274 24.0522 163.092Z" fill="#EBECEE"/>
<path fillRule="evenodd" clipRule="evenodd" d="M44.0956 46.198C44.0956 47.7564 42.8329 49.0187 41.2756 49.0187C39.7175 49.0187 38.4556 47.7564 38.4556 46.198C38.4556 44.6402 39.7175 43.3772 41.2756 43.3772C42.8329 43.3772 44.0956 44.6402 44.0956 46.198Z" fill="#D1D8DF"/>
<path fillRule="evenodd" clipRule="evenodd" d="M232.405 53.7722C232.405 56.376 230.294 58.4868 227.692 58.4868C225.088 58.4868 222.978 56.376 222.978 53.7722C222.978 51.1684 225.088 49.0576 227.692 49.0576C230.294 49.0576 232.405 51.1684 232.405 53.7722Z" fill="#EBECEE"/>
<path fillRule="evenodd" clipRule="evenodd" d="M297.693 40.9986C297.693 43.0644 296.019 44.7385 293.954 44.7385C291.889 44.7385 290.216 43.0644 290.216 40.9986C290.216 38.9328 291.889 37.2588 293.954 37.2588C296.019 37.2588 297.693 38.9328 297.693 40.9986Z" fill="#EBECEE"/>
<path fillRule="evenodd" clipRule="evenodd" d="M96.7995 215.664C96.7995 216.966 95.7444 218.021 94.4425 218.021C93.1413 218.021 92.0862 216.966 92.0862 215.664C92.0862 214.362 93.1413 213.306 94.4425 213.306C95.7444 213.306 96.7995 214.362 96.7995 215.664Z" stroke="#D2D8DF" stroke-width="2.921" stroke-linecap="round"/>
<path fillRule="evenodd" clipRule="evenodd" d="M95.3974 28.0764C95.3974 29.6348 94.1347 30.8971 92.5773 30.8971C91.02 30.8971 89.7573 29.6348 89.7573 28.0764C89.7573 26.5186 91.02 25.2556 92.5773 25.2556C94.1347 25.2556 95.3974 26.5186 95.3974 28.0764Z" stroke="#D2D8DF" stroke-width="2.921" stroke-linecap="round"/>
<path fillRule="evenodd" clipRule="evenodd" d="M167.33 241.771C165.528 242.457 163.511 241.551 162.826 239.749C162.14 237.947 163.045 235.929 164.848 235.244C166.649 234.558 168.666 235.463 169.351 237.265C170.037 239.068 169.132 241.085 167.33 241.771Z" stroke="#D2D8DF" stroke-width="2.921" stroke-linecap="round"/>
<path fillRule="evenodd" clipRule="evenodd" d="M166.256 175.104H97.3467C92.4965 175.104 88.5264 171.122 88.5264 166.256V67.9875C88.5264 63.121 92.4965 59.1411 97.3467 59.1411H166.256C171.108 59.1411 175.078 63.121 175.078 67.9875V166.256C175.078 171.122 171.108 175.104 166.256 175.104Z" fill="#E0E2EE"/>
<path fillRule="evenodd" clipRule="evenodd" d="M160.374 179.306H91.4643C86.6142 179.306 82.644 175.324 82.644 170.457V72.1891C82.644 67.3226 86.6142 63.3428 91.4643 63.3428H160.374C165.226 63.3428 169.196 67.3226 169.196 72.1891V170.457C169.196 175.324 165.226 179.306 160.374 179.306Z" fill="#E8EBF2"/>
<path fillRule="evenodd" clipRule="evenodd" d="M154.652 182.622H85.6005C80.7403 182.622 76.762 178.657 76.762 173.811V75.9494C76.762 71.103 80.7403 67.1396 85.6005 67.1396H154.652C159.514 67.1396 163.493 71.103 163.493 75.9494V173.811C163.493 178.657 159.514 182.622 154.652 182.622Z" fill="#D8DBEA"/>
<path fillRule="evenodd" clipRule="evenodd" d="M154.652 182.622H85.6005C80.7403 182.622 76.762 178.657 76.762 173.811V75.9494C76.762 71.103 80.7403 67.1396 85.6005 67.1396H154.652C159.514 67.1396 163.493 71.103 163.493 75.9494V173.811C163.493 178.657 159.514 182.622 154.652 182.622Z" fill="#F1F2F7"/>
<path fillRule="evenodd" clipRule="evenodd" d="M144.699 96.9549H93.6959C92.2394 96.9549 91.0471 95.8207 91.0471 94.435C91.0471 93.0474 92.2394 91.9131 93.6959 91.9131H144.699C146.156 91.9131 147.348 93.0474 147.348 94.435C147.348 95.8207 146.156 96.9549 144.699 96.9549Z" fill="#E0E2EE"/>
<path fillRule="evenodd" clipRule="evenodd" d="M144.699 112.081H93.6959C92.2394 112.081 91.0471 110.946 91.0471 109.561C91.0471 108.173 92.2394 107.039 93.6959 107.039H144.699C146.156 107.039 147.348 108.173 147.348 109.561C147.348 110.946 146.156 112.081 144.699 112.081Z" fill="#E0E2EE"/>
<path fillRule="evenodd" clipRule="evenodd" d="M144.699 127.206H93.6959C92.2394 127.206 91.0471 126.072 91.0471 124.686C91.0471 123.3 92.2394 122.164 93.6959 122.164H144.699C146.156 122.164 147.348 123.3 147.348 124.686C147.348 126.072 146.156 127.206 144.699 127.206Z" fill="#E0E2EE"/>
<path fillRule="evenodd" clipRule="evenodd" d="M144.699 142.332H93.6959C92.2394 142.332 91.0471 141.198 91.0471 139.812C91.0471 138.424 92.2394 137.29 93.6959 137.29H144.699C146.156 137.29 147.348 138.424 147.348 139.812C147.348 141.198 146.156 142.332 144.699 142.332Z" fill="#E0E2EE"/>
<path fillRule="evenodd" clipRule="evenodd" d="M120.319 157.457H93.7073C92.2445 157.457 91.0471 156.323 91.0471 154.937C91.0471 153.55 92.2445 152.416 93.7073 152.416H120.319C121.782 152.416 122.979 153.55 122.979 154.937C122.979 156.323 121.782 157.457 120.319 157.457Z" fill="#E0E2EE"/>
<path fillRule="evenodd" clipRule="evenodd" d="M174.032 137.909C163.833 148.106 148.045 149.256 136.582 141.384C135.117 140.359 133.723 139.209 132.423 137.909C131.754 137.242 131.123 136.553 130.528 135.829C129.339 134.381 128.298 132.837 127.444 131.242C125.941 128.548 124.919 125.69 124.361 122.735C122.56 113.468 125.252 103.493 132.423 96.3263C139.61 89.1378 149.587 86.463 158.855 88.2462C161.808 88.8214 164.67 89.8434 167.364 91.3294C168.962 92.2018 170.484 93.2431 171.934 94.4319C172.657 95.0241 173.346 95.657 174.013 96.3263C175.315 97.6263 176.483 99.0182 177.488 100.485C185.364 111.943 184.211 127.731 174.032 137.909Z" fill="white" fill-opacity="0.1"/>
<path fillRule="evenodd" clipRule="evenodd" d="M171.178 135.901C160.568 146.513 143.373 146.511 132.761 135.901C122.163 125.302 122.163 108.106 132.775 97.4955C143.373 86.8971 160.568 86.8971 171.166 97.4955C181.777 108.106 181.777 125.302 171.178 135.901ZM176.624 92.044C163.004 78.4248 140.935 78.4248 127.316 92.044C113.699 105.661 113.687 127.745 127.304 141.364C139.699 153.755 159.127 154.872 172.791 144.698C174.126 143.703 175.411 142.588 176.637 141.364C177.862 140.138 178.977 138.852 179.97 137.518C190.144 123.851 189.017 104.437 176.624 92.044Z" fill="#E0E2EE"/>
<path fillRule="evenodd" clipRule="evenodd" d="M230.221 192.701L229.649 193.273C225.867 197.058 219.672 197.058 215.888 193.273L180.96 158.346L195.294 144.012L230.221 178.94C234.006 182.724 234.006 188.917 230.221 192.701Z" fill="url(#paint0_linear_75_880)"/>
<path fillRule="evenodd" clipRule="evenodd" d="M180.723 136.45L191.044 146.771L183.717 154.096L173.398 143.775C174.76 142.76 176.069 141.621 177.322 140.372C178.571 139.123 179.71 137.812 180.723 136.45Z" fill="#E0E2EE"/>
<path fillRule="evenodd" clipRule="evenodd" d="M229.699 178.51L215.456 192.751L212.892 190.185L227.133 175.944L229.699 178.51Z" fill="#EF545F"/>
<path fillRule="evenodd" clipRule="evenodd" d="M196.086 144.506L181.454 159.138L179.28 156.965L193.912 142.332L196.086 144.506Z" fill="url(#paint1_linear_75_880)"/>
<path fillRule="evenodd" clipRule="evenodd" d="M164.154 93.8449L128.27 129.727C126.919 127.305 126 124.735 125.5 122.079L156.505 91.073C159.16 91.592 161.732 92.5089 164.154 93.8449Z" fill="white" fill-opacity="0.5"/>
<path fillRule="evenodd" clipRule="evenodd" d="M175.919 102.374L137.124 138.971C135.735 138.056 134.412 137.027 133.179 135.863C132.544 135.264 131.944 134.65 131.382 134.002L170.649 96.9551C171.337 97.487 171.99 98.0533 172.623 98.6522C173.856 99.8156 174.965 101.061 175.919 102.374Z" fill="white" fill-opacity="0.5"/>
<defs>
<linearGradient id="paint0_linear_75_880" x1="207.01" y1="117.963" x2="154.911" y2="170.062" gradientUnits="userSpaceOnUse">
<stop stopColor="#FF8960"/>
<stop offset="1" stopColor="#FF62A5"/>
</linearGradient>
<linearGradient id="paint1_linear_75_880" x1="187.683" y1="133.929" x2="170.877" y2="150.735" gradientUnits="userSpaceOnUse">
<stop stop-color="#FF404E"/>
<stop offset="1" stopColor="#FF62A5"/>
</linearGradient>
</defs>
</svg>
